<?xml version="1.0" encoding="UTF-8"?>
<svg id="Capa_1" data-name="Capa 1" xmlns="http://www.w3.org/2000/svg" viewBox="0 0 336.67 240.55">
  <defs>
    <style>
      .cls-1 {
        fill: #fff;
      }
    </style>
  </defs>
  <path class="cls-1" d="m168.24,24.54c-51.61,0-103.23,0-154.84,0-8.37,0-13.71-5.38-13.28-13.23C.45,5.3,5.17.5,11.18.06c.75-.05,1.5-.04,2.25-.04C116.65.02,219.88.02,323.11,0c2.94,0,5.72.32,8.19,2.09,4.49,3.21,6.42,8.74,4.81,13.91-1.65,5.3-6.18,8.52-12.28,8.53-42.74.02-85.48.01-128.22.02-9.12,0-18.25,0-27.37,0Z"/>
  <path class="cls-1" d="m144.53,108.02c43.61,0,87.23-.01,130.84,0,8.28,0,13.68,5.49,13.21,13.29-.35,5.79-5,10.63-10.76,11.16-.99.09-2,.06-3,.06-86.98,0-173.96,0-260.94,0-8.47,0-13.82-4.84-13.78-12.37.04-6.77,4.93-11.94,11.71-12.1,6.5-.15,13-.05,19.49-.05,37.74,0,75.48,0,113.22,0Z"/>
  <path class="cls-1" d="m90.17,240.54c-25.74,0-51.48.03-77.22-.02-8.65-.01-14.44-7.07-12.62-15.15,1.23-5.42,5.86-9.24,11.65-9.32,7.62-.11,15.24-.04,22.87-.04,44.23,0,88.47,0,132.7.01,7.6,0,12.94,4.97,13.04,11.97.11,7.35-5.1,12.51-12.83,12.52-23.49.04-46.98.02-70.47.02-2.37,0-4.75,0-7.12,0Z"/>
</svg>